# xmcd
#
# Track frame offsets: 
#        150
#        16377
#        34950
#        52756
#        69523
#        83644
#        101363
#        119494
#        134062
#        151408
#        164693
#        180561
#        192719
#        205244
#        221538
#
# Disc length: 3153 seconds
#
# Revision: 0
# Processed by: cddbd v1.5.2PL0 Copyright (c) Steve Scherf et al.
# Submitted via: ExactAudioCopy v0.99pb5
#
DISCID=d70c4f0f
DTITLE=Various Artist - KHP Music - Dont Bug Me Baby
DYEAR=2010
DGENRE=Beach
TTITLE0=Holiday Band - Your Sweet Love
TTITLE1=William Bell - Treat Her Right (Like A Lady)
TTITLE2=Vicki Skinner - Who Do You Love
TTITLE3=Andre Lee - Love Will Never Change
TTITLE4=Rhonda Mcdaniel and Mike Taylor - You Bug Me Baby
TTITLE5=Willie Clayton - Some Kind Of Wonderful
TTITLE6=Magnificents - You Never Know Whats On A Womans Mind
TTITLE7=Glenn Tippett - Why Dont We Just Dance
TTITLE8=Castaways - Next To Love
TTITLE9=Hip Pocket - Packin Up
TTITLE10=Gary Brown - Sho Enough
TTITLE11=Entertainers - Its Got To Be Mellow
TTITLE12=Paul Craver - Love Is A Many Splendored Thing
TTITLE13=Gary Bass - Sofa Circuit
TTITLE14=Atlantic Groove - I Got To Change
EXTD=
EXTT0=
EXTT1=
EXTT2=
EXTT3=
EXTT4=
EXTT5=
EXTT6=
EXTT7=
EXTT8=
EXTT9=
EXTT10=
EXTT11=
EXTT12=
EXTT13=
EXTT14=
PLAYORDER=
